<svg id="bold" height="512" viewBox="0 0 32 32" width="512" xmlns="http://www.w3.org/2000/svg">
  <path d="m26 32h-20c-3.314 0-6-2.686-6-6v-20c0-3.314 2.686-6 6-6h20c3.314 0 6 2.686 6 6v20c0 3.314-2.686 6-6 6z"
    fill="currentColor" />
  <path
    d="m23.301 16.379c-.299-1.345-.907-3.96-1.338-5.805-.355-1.516-1.689-2.574-3.246-2.574h-5.435c-1.557 0-2.892 1.059-3.246 2.574-.431 1.845-1.039 4.46-1.337 5.805-.088.396.007.805.261 1.122.255.317.634.499 1.041.499h.573c.667 0 1.205-.38 1.373-.967l.733-2.566c.242.788.267 1.635.058 2.458l-1.369 5.414c-.027.106-.041.216-.041.328 0 .735.598 1.333 1.334 1.333h6.673c.736 0 1.334-.598 1.334-1.333 0-.109-.013-.218-.041-.327l-1.369-5.415c-.208-.823-.183-1.67.059-2.458l.733 2.566c.162.57.69.967 1.282.967h.664c.407 0 .787-.182 1.041-.499.256-.317.351-.726.263-1.122zm-10.8-4.379c-.04 0-.08.004-.121.011-.249.046-.451.229-.52.473l-1.181 4.165s-.029.018-.104.018l-.574.001c.298-1.342.904-3.95 1.334-5.79.213-.909 1.013-1.544 1.948-1.544h.163l1.914 4.858c-.01.047-.026.094-.026.142v1.666h-1.127c.046-1.33-.356-2.643-1.172-3.733-.127-.17-.326-.267-.534-.267zm.161 10.666 1.348-5.333h1.323v5.333zm6.674.001h-2.67v-5.333h1.322zm1.998-6-1.195-4.183c-.069-.244-.271-.427-.52-.473-.251-.047-.503.053-.655.256-.816 1.09-1.218 2.403-1.172 3.733h-1.126v-1.547l1.902-5.12h.149c.934 0 1.735.635 1.948 1.544.43 1.84 1.037 4.449 1.334 5.789h-.665z"
    fill="#DB6327" /></svg>