<svg id="bold" enable-background="new 0 0 32 32" height="512" viewBox="0 0 32 32" width="512"
  xmlns="http://www.w3.org/2000/svg">
  <path d="m26 32h-20c-3.314 0-6-2.686-6-6v-20c0-3.314 2.686-6 6-6h20c3.314 0 6 2.686 6 6v20c0 3.314-2.686 6-6 6z"
    fill="currentColor" />
  <path
    d="m16 8c-3.309 0-6 2.711-6 6.044 0 4.735 5.436 9.624 5.668 9.83.094.084.214.126.332.126s.238-.042.332-.126c.232-.206 5.668-5.095 5.668-9.83 0-3.333-2.691-6.044-6-6.044zm1.944 5.588-2.25 3.572c-.069.11-.193.173-.322.173-.041 0-.082-.006-.122-.02-.168-.055-.272-.214-.25-.382l.322-2.456h-.95c-.139 0-.267-.074-.332-.191-.065-.118-.055-.26.024-.369l2.25-3.095c.1-.137.285-.189.446-.129.162.061.259.221.233.385l-.31 1.971h.939c.135 0 .26.069.326.181.067.113.065.25-.004.36z"
    fill="#DB6327" /></svg>