<svg enable-background="new 0 0 32 32" height="512" viewBox="0 0 32 32" width="512" xmlns="http://www.w3.org/2000/svg">
  <g id="BG">
    <path d="m26 32h-20c-3.314 0-6-2.686-6-6v-20c0-3.314 2.686-6 6-6h20c3.314 0 6 2.686 6 6v20c0 3.314-2.686 6-6 6z"
      fill="currentColor" />
  </g>
  <g id="bold">
    <g fill="#DB6327">
      <path
        d="m19.529 14.908 1.188-4.615c.144-.555.027-1.132-.323-1.583-.347-.452-.875-.71-1.447-.71h-.947v6.038c.557.211 1.072.504 1.529.87z" />
      <path
        d="m12.472 14.906c.457-.365.972-.658 1.528-.868v-6.038h-.947c-.572 0-1.1.258-1.448.709-.349.451-.467 1.028-.323 1.582z" />
      <path d="m16 13.667c.342 0 .675.036 1 .094v-5.761h-2v5.76c.325-.058.658-.093 1-.093z" />
    </g>
    <path
      d="m16 14.667c-2.573 0-4.667 2.093-4.667 4.667s2.094 4.666 4.667 4.666 4.667-2.093 4.667-4.667-2.094-4.666-4.667-4.666zm2.525 4.494-.903.931.219 1.316c.032.189-.048.379-.204.49-.157.111-.361.123-.53.031l-1.1-.602-1.095.61c-.075.042-.158.063-.242.063-.101 0-.201-.03-.287-.09-.157-.11-.237-.299-.207-.489l.211-1.317-.91-.925c-.132-.134-.177-.33-.118-.507.059-.178.212-.308.397-.337l1.233-.192.552-1.186c.082-.175.258-.288.451-.289h.002c.193 0 .369.111.452.286l.56 1.182 1.234.184c.185.028.34.157.4.334.061.176.016.372-.115.507z"
      fill="#DB6327" />
  </g>
</svg>