<svg id="bold" enable-background="new 0 0 32 32" height="512" viewBox="0 0 32 32" width="512" xmlns="http://www.w3.org/2000/svg"><path d="m26 32h-20c-3.314 0-6-2.686-6-6v-20c0-3.314 2.686-6 6-6h20c3.314 0 6 2.686 6 6v20c0 3.314-2.686 6-6 6z" fill="currentColor"/><path d="m22.667 18c-.735 0-1.333.598-1.333 1.333 0 .236.067.454.175.647l-1.13 1.414c-.121-.036-.246-.061-.378-.061-.336 0-.639.129-.874.335l-1.803-.896c.003-.035.011-.069.011-.105 0-.735-.598-1.333-1.333-1.333s-1.333.598-1.333 1.333c-.002.735.596 1.333 1.331 1.333.336 0 .639-.129.874-.335l1.803.896c-.003.035-.011.069-.011.105.001.736.599 1.334 1.334 1.334s1.333-.598 1.333-1.333c0-.236-.067-.454-.175-.647l1.13-1.414c.121.036.246.061.378.061.735 0 1.333-.598 1.333-1.333s-.597-1.334-1.332-1.334z" fill="#DB6327"/><g fill="#DB6327"><path d="m20.667 8h-10.667c-1.105 0-2 .895-2 2s.895 2 2 2h10.667c1.105 0 2-.895 2-2s-.896-2-2-2zm-10.667 2.667c-.368 0-.667-.299-.667-.667s.299-.667.667-.667.667.298.667.667c0 .368-.299.667-.667.667zm2.667 0c-.369 0-.667-.299-.667-.667s.298-.667.667-.667c.368 0 .667.298.667.667-.001.368-.299.667-.667.667z"/><path d="m12.667 21.333c-.367 0-.667-.3-.667-.667 0-.366.3-.666.667-.666s.667.3.667.667c0-.8.353-1.513.907-2h-4.241c-1.107 0-2 .893-2 2s.893 2 2 2h4.24c-.553-.487-.907-1.2-.907-2 0 .366-.3.666-.666.666zm-2.667 0c-.367 0-.667-.3-.667-.667 0-.366.3-.666.667-.666s.667.3.667.667c0 .366-.3.666-.667.666z"/><path d="m20.667 13.333h-10.667c-1.107 0-2 .893-2 2s.893 2 2 2h10.667c.087 0 .173-.007.26-.02.46-.053.86-.267 1.16-.58 0 0 0 0 .007-.007.353-.36.573-.847.573-1.393 0-1.106-.894-2-2-2zm-10.667 2.667c-.367 0-.667-.3-.667-.667s.3-.667.667-.667.667.3.667.667-.3.667-.667.667zm2.667 0c-.367 0-.667-.3-.667-.667s.3-.667.667-.667.667.3.667.667-.301.667-.667.667z"/></g></svg>