<svg enable-background="new 0 0 32 32" height="512" viewBox="0 0 32 32" width="512" xmlns="http://www.w3.org/2000/svg">
  <g id="BG">
    <path d="m26 32h-20c-3.314 0-6-2.686-6-6v-20c0-3.314 2.686-6 6-6h20c3.314 0 6 2.686 6 6v20c0 3.314-2.686 6-6 6z"
      fill="currentColor" />
  </g>
  <g id="bold">
    <g>
      <path
        d="m16.86 19.347c-.083 0-.166-.021-.242-.062l-2.951-1.632-2.951 1.632c-.168.093-.373.082-.53-.029-.156-.11-.236-.3-.205-.489l.569-3.49-2.408-2.467c-.131-.134-.176-.33-.117-.508.06-.178.214-.307.399-.335l3.306-.506 1.483-3.16c.165-.351.74-.351.905 0l1.483 3.16 3.306.506c.185.028.339.158.399.335.059.178.014.374-.117.508l-2.407 2.467.569 3.49c.031.189-.049.379-.205.489-.084.061-.185.091-.286.091z"
        fill="#DB6327" />
    </g>
    <g>
      <path
        d="m23.334 22.738c-.252 0-.493-.143-.605-.387-1.441-3.118-4.452-3.913-4.483-3.921-.357-.09-.573-.453-.482-.81.09-.357.452-.574.81-.482.149.038 3.661.965 5.366 4.654.155.334.009.73-.326.885-.091.042-.186.061-.28.061z"
        fill="#DB6327" />
    </g>
    <g>
      <path
        d="m23.334 18.284c-.245 0-.48-.135-.597-.368-.782-1.564-3.146-2.016-3.169-2.02-.363-.063-.606-.409-.543-.771.063-.363.412-.604.771-.543.124.022 3.041.553 4.133 2.738.165.329.031.73-.298.895-.095.046-.197.069-.297.069z"
        fill="#DB6327" />
    </g>
    <g>
      <path
        d="m20.788 24.011c-.222 0-.439-.111-.566-.313-1.365-2.183-3.66-2.067-3.681-2.066-.366.026-.684-.257-.706-.624-.023-.368.257-.684.624-.706.124-.01 3.113-.159 4.894 2.691.195.312.1.723-.212.919-.11.067-.232.099-.353.099z"
        fill="#DB6327" />
    </g>
  </g>
</svg>