<svg id="bold" enable-background="new 0 0 32 32" height="512" viewBox="0 0 32 32" width="512"
  xmlns="http://www.w3.org/2000/svg">
  <path d="m26 32h-20c-3.314 0-6-2.686-6-6v-20c0-3.314 2.686-6 6-6h20c3.314 0 6 2.686 6 6v20c0 3.314-2.686 6-6 6z"
    fill="currentColor" />
  <g fill="#DB6327">
    <path
      d="m18 10.5c-.735 0-1.333-.598-1.333-1.333s.598-1.333 1.333-1.333 1.333.598 1.333 1.333-.598 1.333-1.333 1.333z" />
    <path d="m18 12.5c-.276 0-.5-.224-.5-.5v-1.833c0-.276.224-.5.5-.5s.5.224.5.5v1.833c0 .276-.224.5-.5.5z" />
    <path d="m13.333 11.5c-.276 0-.5-.224-.5-.5v-.833c0-.276.224-.5.5-.5s.5.224.5.5v.833c0 .276-.224.5-.5.5z" />
    <path
      d="m13.333 10.5c-.735 0-1.333-.598-1.333-1.333s.598-1.333 1.333-1.333 1.333.598 1.333 1.333c.001.735-.597 1.333-1.333 1.333z" />
    <path
      d="m20.667 14.5c-.128 0-.256-.049-.354-.146-.195-.195-.195-.512 0-.707l1.854-1.854v-1.626c0-.276.224-.5.5-.5s.5.224.5.5v1.833c0 .132-.053.26-.146.354l-2 2c-.098.097-.226.146-.354.146z" />
    <path
      d="m22.667 10.5c-.735 0-1.333-.598-1.333-1.333s.598-1.333 1.333-1.333 1.333.597 1.333 1.333c0 .735-.598 1.333-1.333 1.333z" />
  </g>
  <g fill="#DB6327">
    <path
      d="m18.667 17.833c-.368 0-.667-.299-.667-.667v-.666c0-1.47-1.196-2.667-2.667-2.667h-4.385c-.284 0-.536.18-.63.448l-1.022 2.938c-.121.348-.5.533-.849.41-.348-.121-.532-.501-.41-.849l1.022-2.938c.28-.803 1.039-1.343 1.889-1.343h4.385c2.206 0 4 1.794 4 4v.667c0 .369-.298.667-.666.667z" />
    <path
      d="m11.634 23.167c-.919 0-1.667-.748-1.667-1.667s.748-1.667 1.667-1.667 1.667.748 1.667 1.667c-.001.919-.748 1.667-1.667 1.667z" />
    <path
      d="m20.3 23.167c-.919 0-1.667-.748-1.667-1.667s.748-1.667 1.667-1.667 1.667.748 1.667 1.667-.748 1.667-1.667 1.667z" />
    <path
      d="m22.499 18.5c-.642 0-1.166-.523-1.166-1.167v-.561c-.549-.178-1.165-.272-1.833-.272h-11c-.276 0-.5.224-.5.5v3c0 .701.399 1.304.978 1.612-.002-.038-.011-.074-.011-.112 0-1.47 1.196-2.667 2.667-2.667s2.666 1.197 2.666 2.667c0 .114-.02.223-.034.333h3.401c-.014-.11-.034-.219-.034-.333 0-1.47 1.196-2.667 2.667-2.667s2.667 1.196 2.667 2.667c0 .051-.012.099-.015.15.617-.295 1.048-.588 1.048-1.317 0-.692-.164-1.306-.456-1.831z" />
    <path
      d="m12.667 18c-.369 0-.667-.298-.667-.667v-3.833c0-.368.299-.667.667-.667s.667.299.667.667v3.833c-.001.369-.299.667-.667.667z" />
  </g>
</svg>